<svg xmlns="http://www.w3.org/2000/svg" width="1920" height="1080" viewBox="0 0 1920 1080">
  <!-- Jellyfin mark (c) Jellyfin contributors, CC BY-SA 4.0 (https://github.com/jellyfin/jellyfin-ux) -->
  <defs>
    <linearGradient id="tile" x1="0" y1="100" x2="0" y2="980" gradientUnits="userSpaceOnUse">
      <stop offset="0" stop-color="#3d3066"/>
      <stop offset="1" stop-color="#2a1f4c"/>
    </linearGradient>
    <linearGradient id="jf" gradientUnits="userSpaceOnUse" x1="110.25" y1="213.3" x2="496.14" y2="436.09">
      <stop offset="0" stop-color="#AA5CC3"/>
      <stop offset="1" stop-color="#00A4DC"/>
    </linearGradient>
  </defs>

  <!-- dark frame: full-bleed, so any catalog crop keeps the centered tile intact -->
  <rect width="1920" height="1080" fill="#191228"/>

  <!-- centered rounded tile (the actual icon; matches the Auto Collections layout) -->
  <rect x="530" y="100" width="860" height="880" rx="90" fill="url(#tile)"/>

  <!-- icon row: Jellyfin (source) -> gear (transcode) -> download (result) -->

  <!-- Jellyfin mark, left -->
  <g transform="translate(567,245) scale(0.58)" fill="url(#jf)">
    <path d="M256,201.6c-20.4,0-86.2,119.3-76.2,139.4s142.5,19.9,152.4,0S276.5,201.6,256,201.6z"/>
    <path d="M256,23.3c-61.6,0-259.8,359.4-229.6,420.1s429.3,60,459.2,0S317.6,23.3,256,23.3z M406.5,390.8c-19.6,39.3-281.1,39.8-300.9,0s110.1-275.3,150.4-275.3S426.1,351.4,406.5,390.8z"/>
  </g>

  <!-- gear (Material settings), center -->
  <g transform="translate(810,230) scale(12.5)" fill="#ffffff" fill-rule="evenodd">
    <path d="M19.14 12.94c.04-.3.06-.61.06-.94 0-.32-.02-.64-.07-.94l2.03-1.58c.18-.14.23-.41.12-.61l-1.92-3.32c-.12-.22-.37-.29-.59-.22l-2.39.96c-.5-.38-1.03-.7-1.62-.94l-.36-2.54c-.04-.24-.24-.41-.48-.41h-3.84c-.24 0-.43.17-.47.41l-.36 2.54c-.59.24-1.13.57-1.62.94l-2.39-.96c-.22-.08-.47 0-.59.22L2.74 8.87c-.12.21-.08.47.12.61l2.03 1.58c-.05.3-.09.63-.09.94s.02.64.07.94l-2.03 1.58c-.18.14-.23.41-.12.61l1.92 3.32c.12.22.37.29.59.22l2.39-.96c.5.38 1.03.7 1.62.94l.36 2.54c.05.24.24.41.48.41h3.84c.24 0 .44-.17.47-.41l.36-2.54c.59-.24 1.13-.56 1.62-.94l2.39.96c.22.08.47 0 .59-.22l1.92-3.32c.12-.22.07-.47-.12-.61l-2.01-1.58zM12 15.6c-1.98 0-3.6-1.62-3.6-3.6s1.62-3.6 3.6-3.6 3.6 1.62 3.6 3.6-1.62 3.6-3.6 3.6z"/>
  </g>

  <!-- download icon (Material file_download, as used in the Jellyfin UI), right -->
  <g transform="translate(1055,236) scale(12.5)" fill="#ffffff">
    <path d="M19 9h-4V3H9v6H5l7 7 7-7zM5 18v2h14v-2H5z"/>
  </g>

  <!-- plugin name -->
  <text x="960" y="712" text-anchor="middle" font-family="Arial, Helvetica, sans-serif" font-weight="bold" font-size="92" fill="#ffffff">TRANSCODE</text>
  <text x="960" y="826" text-anchor="middle" font-family="Arial, Helvetica, sans-serif" font-weight="bold" font-size="92" fill="#ffffff">DOWNLOADER</text>
</svg>
